<svg width="20" height="20" viewBox="0 0 24 24" fill="none" xmlns="http://www.w3.org/2000/svg">
<g id="Filled_hr">
<path id="Vector" d="M1.5249 19.7V13.2C1.5249 12.7667 1.6749 12.4 1.9749 12.1C2.2749 11.8 2.63324 11.65 3.0499 11.65H3.4749C3.90824 11.65 4.2749 11.8 4.5749 12.1C4.8749 12.4 5.0249 12.7667 5.0249 13.2V19.7C5.0249 20.1167 4.8749 20.475 4.5749 20.775C4.2749 21.075 3.90824 21.225 3.4749 21.225H3.0499C2.63324 21.225 2.2749 21.075 1.9749 20.775C1.6749 20.475 1.5249 20.1167 1.5249 19.7ZM13.2749 21.475L6.5249 19.525V11.65H8.3499C8.46657 11.65 8.5749 11.6627 8.6749 11.688C8.7749 11.7127 8.88324 11.7417 8.9999 11.775L15.4749 14.15C15.7249 14.25 15.9376 14.425 16.1129 14.675C16.2876 14.925 16.3749 15.1667 16.3749 15.4C16.3749 15.6833 16.2832 15.904 16.0999 16.062C15.9166 16.2207 15.6999 16.3 15.4499 16.3H13.5499C13.3166 16.3 13.1082 16.2877 12.9249 16.263C12.7416 16.2377 12.5666 16.1917 12.3999 16.125L11.1249 15.675C10.9916 15.625 10.8666 15.6293 10.7499 15.688C10.6332 15.746 10.5582 15.825 10.5249 15.925C10.4916 16.0417 10.4999 16.1543 10.5499 16.263C10.5999 16.371 10.6832 16.45 10.7999 16.5L12.3249 17.025C12.4916 17.0917 12.6792 17.1377 12.8879 17.163C13.0959 17.1877 13.2999 17.2 13.4999 17.2H19.4999C19.9999 17.2 20.4292 17.3667 20.7879 17.7C21.1459 18.0333 21.3249 18.4583 21.3249 18.975L14.3749 21.45C14.2249 21.5 14.0416 21.5293 13.8249 21.538C13.6082 21.546 13.4249 21.525 13.2749 21.475ZM15.8499 12.25C15.7499 12.25 15.6539 12.2373 15.5619 12.212C15.4706 12.1873 15.3832 12.1417 15.2999 12.075C13.8832 10.825 12.6792 9.62901 11.6879 8.48701C10.6959 7.34567 10.1999 6.29167 10.1999 5.32501C10.1999 4.49167 10.4832 3.78734 11.0499 3.21201C11.6166 2.63734 12.3249 2.35001 13.1749 2.35001C13.6749 2.35001 14.1542 2.46667 14.6129 2.70001C15.0709 2.93334 15.4832 3.27501 15.8499 3.72501C16.1999 3.27501 16.6082 2.93334 17.0749 2.70001C17.5416 2.46667 18.0249 2.35001 18.5249 2.35001C19.3582 2.35001 20.0626 2.63734 20.6379 3.21201C21.2126 3.78734 21.4999 4.49167 21.4999 5.32501C21.4999 6.29167 20.9999 7.34567 19.9999 8.48701C18.9999 9.62901 17.7999 10.825 16.3999 12.075C16.3332 12.1417 16.2499 12.1873 16.1499 12.212C16.0499 12.2373 15.9499 12.25 15.8499 12.25Z" fill="#7E55F1"/>
</g>
</svg>
