<svg width="24" height="24" viewBox="0 0 24 24" fill="none" xmlns="http://www.w3.org/2000/svg">
<g id="Filled_payslip">
<path id="Vector" d="M6.3 21.5C5.8 21.5 5.375 21.325 5.025 20.975C4.675 20.625 4.5 20.2 4.5 19.7V4.3C4.5 3.8 4.675 3.375 5.025 3.025C5.375 2.675 5.8 2.5 6.3 2.5H13.5C13.75 2.5 13.9833 2.54567 14.2 2.637C14.4167 2.729 14.6083 2.85833 14.775 3.025L18.975 7.225C19.1417 7.39167 19.271 7.58333 19.363 7.8C19.4543 8.01667 19.5 8.25 19.5 8.5V19.7C19.5 20.2 19.325 20.625 18.975 20.975C18.625 21.325 18.2 21.5 17.7 21.5H6.3ZM12.175 18.625C12.3917 18.625 12.571 18.5543 12.713 18.413C12.8543 18.271 12.925 18.0917 12.925 17.875V17.625H14.175C14.3917 17.625 14.571 17.5543 14.713 17.413C14.8543 17.271 14.925 17.0917 14.925 16.875V13.875C14.925 13.6583 14.8543 13.479 14.713 13.337C14.571 13.1957 14.3917 13.125 14.175 13.125H10.925V11.625H14.175C14.3917 11.625 14.571 11.554 14.713 11.412C14.8543 11.2707 14.925 11.0917 14.925 10.875C14.925 10.6583 14.8543 10.479 14.713 10.337C14.571 10.1957 14.3917 10.125 14.175 10.125H12.925V9.875C12.925 9.65833 12.8543 9.479 12.713 9.337C12.571 9.19567 12.3917 9.125 12.175 9.125C11.9583 9.125 11.7793 9.19567 11.638 9.337C11.496 9.479 11.425 9.65833 11.425 9.875V10.125H10.175C9.95833 10.125 9.77933 10.1957 9.638 10.337C9.496 10.479 9.425 10.6583 9.425 10.875V13.875C9.425 14.0917 9.496 14.2707 9.638 14.412C9.77933 14.554 9.95833 14.625 10.175 14.625H13.425V16.125H10.175C9.95833 16.125 9.77933 16.1957 9.638 16.337C9.496 16.479 9.425 16.6583 9.425 16.875C9.425 17.0917 9.496 17.271 9.638 17.413C9.77933 17.5543 9.95833 17.625 10.175 17.625H11.425V17.875C11.425 18.0917 11.496 18.271 11.638 18.413C11.7793 18.5543 11.9583 18.625 12.175 18.625ZM14.425 7.75H17.575L13.525 3.7V6.85C13.525 7.1 13.6127 7.31233 13.788 7.487C13.9627 7.66233 14.175 7.75 14.425 7.75Z" fill="#7E55F1"/>
</g>
</svg>
