<svg width="24" height="24" viewBox="0 0 24 24" fill="none" xmlns="http://www.w3.org/2000/svg">
<g id="business_center_FILL0_wght300_GRAD0_opsz24 2">
<path id="Vector" d="M14.425 20.25L9 18.35L4.7 20.025C4.4 20.1417 4.125 20.1083 3.875 19.925C3.625 19.7417 3.5 19.5 3.5 19.2V6.075C3.5 5.875 3.55433 5.69567 3.663 5.537C3.771 5.379 3.91667 5.26667 4.1 5.2L8.4 3.75C8.6 3.68333 8.8 3.65 9 3.65C9.2 3.65 9.4 3.68333 9.6 3.75L15 5.65L19.3 3.975C19.6 3.85833 19.875 3.88333 20.125 4.05C20.375 4.21667 20.5 4.45833 20.5 4.775V17.95C20.5 18.1667 20.4417 18.35 20.325 18.5C20.2083 18.65 20.05 18.7583 19.85 18.825L15.575 20.275C15.3917 20.3417 15.2043 20.371 15.013 20.363C14.821 20.3543 14.625 20.3167 14.425 20.25V20.25ZM14.25 18.625V6.925L9.75 5.35V17.05L14.25 18.625ZM15.75 18.625L19 17.55V5.7L15.75 6.925V18.625ZM5 18.3L8.25 17.05V5.35L5 6.45V18.3ZM15.75 6.925V18.625V6.925ZM8.25 5.35V17.05V5.35Z" fill="#7A7A7A"/>
</g>
</svg>
